<svg width="100" height="100" viewBox="0 0 100 100" fill="none" xmlns="http://www.w3.org/2000/svg">
  <defs>
    <linearGradient id="badgeGradient" x1="8" y1="92" x2="92" y2="8" gradientUnits="userSpaceOnUse">
      <stop offset="0%" stop-color="#FFF6EE" stop-opacity="0.95" />
      <stop offset="52%" stop-color="#F8FCFA" stop-opacity="0.92" />
      <stop offset="100%" stop-color="#EAF7F4" stop-opacity="0.9" />
    </linearGradient>
    <linearGradient id="highlightGradient" x1="12" y1="16" x2="88" y2="84" gradientUnits="userSpaceOnUse">
      <stop offset="0%" stop-color="#FFFFFF" stop-opacity="0.72" />
      <stop offset="100%" stop-color="#FFFFFF" stop-opacity="0" />
    </linearGradient>
    <linearGradient id="curavonTealGradient" x1="20" y1="20" x2="80" y2="80" gradientUnits="userSpaceOnUse">
      <stop offset="0%" stop-color="#2F7E8A" />
      <stop offset="55%" stop-color="#3EBFA3" />
      <stop offset="100%" stop-color="#8EDCCB" />
    </linearGradient>
    <filter id="badgeShadow" x="-20%" y="-20%" width="140%" height="140%">
      <feDropShadow dx="0" dy="4" stdDeviation="4" flood-color="#2F7E8A" flood-opacity="0.14" />
    </filter>
  </defs>
  <g filter="url(#badgeShadow)">
    <rect
      x="8"
      y="8"
      width="84"
      height="84"
      rx="24"
      fill="url(#badgeGradient)"
      stroke="rgba(142, 220, 203, 0.45)"
      stroke-width="1.5"
    />
    <rect x="12" y="12" width="76" height="76" rx="20" fill="url(#highlightGradient)" />
  </g>
  <path
    d="M60 20.5A30 30 0 1 0 79.4 54.2"
    fill="none"
    stroke="url(#curavonTealGradient)"
    stroke-width="10"
    stroke-linecap="round"
    stroke-linejoin="round"
  />
  <path
    d="M60 20.5A30 30 0 1 0 79.4 54.2"
    fill="none"
    stroke="rgba(255, 255, 255, 0.24)"
    stroke-width="2.5"
    stroke-linecap="round"
    stroke-linejoin="round"
  />
  <circle cx="50" cy="42" r="4" fill="#FF8A64" />
  <path
    d="M34 55 C40 55 42 55 45 50 C48 45 51 65 55 58 C58 53 62 55 67 55"
    fill="none"
    stroke="#2F7E8A"
    stroke-width="5"
    stroke-linecap="round"
    stroke-linejoin="round"
  />
  <g transform="translate(86 28) rotate(22) scale(-0.78 0.78)">
    <path
      d="M0 0L0 20L7 15L10 24L12 22L9 14L17 14Z"
      fill="url(#curavonTealGradient)"
      stroke="url(#curavonTealGradient)"
      stroke-width="1.2"
      stroke-linejoin="round"
    />
  </g>
</svg>
